# xmcd
#
# Track frame offsets:
#	150
#	18530
#	33155
#	45062
#	59667
#	67620
#	91945
#	104885
#	116385
#	130770
#	143880
#	159652
#	172230
#	189432
#
# Disc length: 2688
#
# Revision: 4
# Processed by: cddbd v1.5.1PL0 Copyright (c) Steve Scherf et al.
# Submitted via: CDex 1.40Release
# Normalized: r3:DSETVAR1,TDELIM( - )
#
DISCID=b90a7e0e
DTITLE=Various Artist - Convoy - Trucking Greats
DYEAR=1900
DGENRE=Country
TTITLE0=Boxcar Willie - Convoy
TTITLE1=Glen Campbell - Rhinestone Cowboy
TTITLE2=The Convoy Crew - Theme From "Rawhide"
TTITLE3=Boxcar Willie - Freightline Fever
TTITLE4=Johnny Paycheck - Green Green Grass Of Home
TTITLE5=Sunny - Only One Road
TTITLE6=Boxcar Willie - Truck Driving Man
TTITLE7=Richard Durrant - Duellin' Banjos
TTITLE8=The Convoy Crew - Phantom 309
TTITLE9=Kenny Rogers and The First Edition - Ruby Don't Take Your Love To Town
TTITLE10=Boxcar Willie - Forty Acres
TTITLE11=The Convoy Crew - Eighteen Wheels
TTITLE12=The Convoy Crew - Peter Gunn Theme
TTITLE13=Boxcar Willie - How Fast Them Trucks Will Go
EXTD=ID3G: 2
EXTT0=
EXTT1=
EXTT2=
EXTT3=
EXTT4=
EXTT5=
EXTT6=
EXTT7=
EXTT8=
EXTT9=
EXTT10=
EXTT11=
EXTT12=
EXTT13=
PLAYORDER=
